<svg xmlns="http://www.w3.org/2000/svg" width="54" height="40.499" viewBox="0 0 54 40.499"><defs><style>.a{fill:#00c58d;}</style></defs><path class="a" d="M52.313,69.855a32.9,32.9,0,0,0-9.387,1.115,23.924,23.924,0,0,1,.7,3.348,25.707,25.707,0,0,1,6.958-1.065c-.318,5.97-2.335,10.689-6.142,14.383a20.942,20.942,0,0,1-11.328,5.3,20.575,20.575,0,0,0,7.365-14.549c.4-8.019-4.161-15.941-12.515-21.733a1.693,1.693,0,0,0-1.922,0C17.686,62.448,13.124,70.37,13.525,78.388a20.575,20.575,0,0,0,7.364,14.549,20.945,20.945,0,0,1-11.329-5.3c-3.805-3.693-5.822-8.411-6.14-14.382a25.7,25.7,0,0,1,6.958,1.065,23.924,23.924,0,0,1,.7-3.348,32.9,32.9,0,0,0-9.387-1.115A1.687,1.687,0,0,0,0,71.543c0,7.749,2.358,13.8,7.208,18.513,4.644,4.512,11.3,6.8,19.792,6.8s15.148-2.287,19.79-6.8C51.642,85.348,54,79.292,54,71.543a1.687,1.687,0,0,0-1.687-1.688ZM16.895,78.22C16.57,71.695,20.239,65.149,27,60.119c6.762,5.029,10.43,11.575,10.105,18.1-.3,5.985-3.878,11.283-10.105,15C20.773,89.5,17.195,84.206,16.895,78.22Z" transform="translate(0 -56.356)"/></svg>