<svg xmlns="http://www.w3.org/2000/svg" width="54" height="54" viewBox="0 0 54 54"><defs><style>.a{fill:#5c54ff;}</style></defs><path class="a" d="M27,0A27,27,0,1,0,54,27,26.891,26.891,0,0,0,27,0Zm0,50.881A23.875,23.875,0,1,1,47.711,15.118a6.4,6.4,0,0,0-.04.7,3.261,3.261,0,0,1-3.164,3.27,6.335,6.335,0,0,0-6.328,6.328,3.168,3.168,0,0,1-3.164,3.164H34.45a7.991,7.991,0,0,0-1.85-.471,4.744,4.744,0,0,0-2.443-8,7.974,7.974,0,0,0-13.331-7.757,9.415,9.415,0,0,0-2.7,6.626v.655l-.655.655a12.694,12.694,0,0,0,18,17.9l1.119,1.119a4.871,4.871,0,0,0,6.817,0,4.752,4.752,0,0,0,0-6.712l-1.534-1.534a6.333,6.333,0,0,0,3.467-5.642,3.168,3.168,0,0,1,3.164-3.164A6.219,6.219,0,0,0,49,20.331a6.6,6.6,0,0,0,.667-.809A23.938,23.938,0,0,1,27,50.881ZM25.881,21.407l-2.237,2.237a1.712,1.712,0,0,1-2.343,0,1.582,1.582,0,0,0-2.237,2.237,4.885,4.885,0,0,0,6.817,0l2.237-2.237a1.582,1.582,0,0,1,2.237,2.237l-4.475,4.475a4.933,4.933,0,0,1-4.692,1.229,1.582,1.582,0,0,0-.816,3.057,7.919,7.919,0,0,0,2.043.265,8.118,8.118,0,0,0,5.7-2.314,4.888,4.888,0,0,1,6.817,0l2.237,2.237a1.584,1.584,0,0,1,0,2.237,1.713,1.713,0,0,1-2.343,0l-2.237-2.237a1.582,1.582,0,0,0-2.237,0l-1.119,1.119A9.53,9.53,0,0,1,15.708,22.525l1.119-1.119a1.582,1.582,0,0,0,.463-1.119V18.978a6.315,6.315,0,0,1,1.774-4.388,4.821,4.821,0,1,1,6.817,6.817Z" transform="translate(0.001)"/></svg>