<svg xmlns="http://www.w3.org/2000/svg" width="54" height="35.239" viewBox="0 0 54 35.239"><defs><style>.a{fill:#fcbe2d;}</style></defs><g transform="translate(0 -88.943)"><g transform="translate(0 88.943)"><path class="a" d="M49.541,93.273H48.5a4.443,4.443,0,0,0-1.217.17A4.466,4.466,0,0,0,42.9,89.825H41.854a4.465,4.465,0,0,0-4.46,4.46v7.2H16.606V93.4a4.465,4.465,0,0,0-4.46-4.46H11.1a4.466,4.466,0,0,0-4.379,3.619,4.444,4.444,0,0,0-1.217-.17H4.46A4.465,4.465,0,0,0,0,96.851v18.541a4.465,4.465,0,0,0,4.46,4.46H5.5a4.444,4.444,0,0,0,1.217-.17A4.466,4.466,0,0,0,11.1,123.3h1.045a4.465,4.465,0,0,0,4.46-4.46v-6.476H37.394v7.358a4.465,4.465,0,0,0,4.46,4.46H42.9a4.466,4.466,0,0,0,4.379-3.619,4.444,4.444,0,0,0,1.217.17H49.54a4.465,4.465,0,0,0,4.46-4.46V97.732A4.464,4.464,0,0,0,49.541,93.273Zm-42.9,22.119A1.138,1.138,0,0,1,5.5,116.529H4.46a1.138,1.138,0,0,1-1.137-1.137V96.851A1.138,1.138,0,0,1,4.46,95.714H5.5a1.138,1.138,0,0,1,1.137,1.137Zm6.641,3.448a1.138,1.138,0,0,1-1.137,1.137H11.1a1.138,1.138,0,0,1-1.137-1.137V93.4A1.138,1.138,0,0,1,11.1,92.265h1.045A1.138,1.138,0,0,1,13.283,93.4Zm24.111-9.8H16.606V104.8H37.394v4.237Zm6.641,10.68a1.138,1.138,0,0,1-1.137,1.137H41.854a1.138,1.138,0,0,1-1.137-1.137V94.284a1.138,1.138,0,0,1,1.137-1.137H42.9a1.138,1.138,0,0,1,1.137,1.137Zm6.641-3.448a1.138,1.138,0,0,1-1.137,1.137H48.5a1.138,1.138,0,0,1-1.137-1.137V97.732A1.138,1.138,0,0,1,48.5,96.6h1.045a1.138,1.138,0,0,1,1.137,1.137Z" transform="translate(0 -88.943)"/></g></g></svg>