<svg xmlns="http://www.w3.org/2000/svg" width="41.048" height="54" viewBox="0 0 41.048 54"><defs><style>.a{fill:#fc5454;}</style></defs><g transform="translate(-60.691)"><path class="a" d="M81.215,0A20.547,20.547,0,0,0,60.691,20.524V33.476a20.524,20.524,0,0,0,41.048,0V20.524A20.547,20.547,0,0,0,81.215,0Zm0,3.2A17.353,17.353,0,0,1,98.071,16.522a20.545,20.545,0,0,1-8.556-4.636,1.6,1.6,0,0,0-2.21,0,19.288,19.288,0,0,1-13.375,5.357,21.9,21.9,0,0,1-9.2-2.037A17.353,17.353,0,0,1,81.215,3.2ZM98.538,33.476a17.323,17.323,0,0,1-34.646,0V20.524a17.394,17.394,0,0,1,.16-2.351,22.548,22.548,0,0,0,9.876,2.272,22.464,22.464,0,0,0,14.48-5.254A22.343,22.343,0,0,0,98.53,20.022c0,.167.008.334.008.5V33.476Z"/><path class="a" d="M161.731,287.642a1.6,1.6,0,1,0-1.6,1.6A1.628,1.628,0,0,0,161.731,287.642Z" transform="translate(-87.398 -255.519)"/><path class="a" d="M199.03,287.642a1.6,1.6,0,1,0,1.6-1.6A1.628,1.628,0,0,0,199.03,287.642Z" transform="translate(-123.576 -255.519)"/><path class="a" d="M121.231,287.642a1.6,1.6,0,1,0-1.6,1.6A1.628,1.628,0,0,0,121.231,287.642Z" transform="translate(-51.219 -255.519)"/><path class="a" d="M139.88,324.541a1.6,1.6,0,1,0,1.6,1.6A1.619,1.619,0,0,0,139.88,324.541Z" transform="translate(-69.309 -289.911)"/><path class="a" d="M181.981,326.142a1.6,1.6,0,1,0-1.6,1.6A1.628,1.628,0,0,0,181.981,326.142Z" transform="translate(-105.487 -289.911)"/><path class="a" d="M325.231,287.642a1.6,1.6,0,1,0-1.6,1.6A1.628,1.628,0,0,0,325.231,287.642Z" transform="translate(-233.452 -255.519)"/><path class="a" d="M364.13,286.041a1.6,1.6,0,1,0,1.6,1.6A1.619,1.619,0,0,0,364.13,286.041Z" transform="translate(-269.63 -255.519)"/><path class="a" d="M283.13,289.242a1.6,1.6,0,1,0-1.6-1.6A1.619,1.619,0,0,0,283.13,289.242Z" transform="translate(-197.273 -255.519)"/><path class="a" d="M303.38,324.541a1.6,1.6,0,1,0,1.6,1.6A1.619,1.619,0,0,0,303.38,324.541Z" transform="translate(-215.362 -289.911)"/><path class="a" d="M343.88,324.541a1.6,1.6,0,1,0,1.6,1.6A1.619,1.619,0,0,0,343.88,324.541Z" transform="translate(-251.541 -289.911)"/><path class="a" d="M302.691,223.717a5.106,5.106,0,0,0,3.634-1.505,1.6,1.6,0,0,0-2.263-2.264,1.939,1.939,0,0,1-2.742,0,1.6,1.6,0,1,0-2.263,2.264A5.106,5.106,0,0,0,302.691,223.717Z" transform="translate(-212.513 -196.061)"/><path class="a" d="M207.3,360.605a7.017,7.017,0,0,0-4.995,2.069,1.6,1.6,0,0,0,2.263,2.264,3.862,3.862,0,0,1,5.462,0,1.6,1.6,0,0,0,2.263-2.264A7.018,7.018,0,0,0,207.3,360.605Z" transform="translate(-126.087 -322.127)"/><path class="a" d="M139.192,223.717a5.106,5.106,0,0,0,3.634-1.505,1.6,1.6,0,0,0-2.264-2.264,1.939,1.939,0,0,1-2.742,0,1.6,1.6,0,0,0-2.263,2.264A5.106,5.106,0,0,0,139.192,223.717Z" transform="translate(-66.459 -196.061)"/></g></svg>