<svg xmlns="http://www.w3.org/2000/svg" width="46.82" height="54" viewBox="0 0 46.82 54"><defs><style>.a{fill:#fff;}</style></defs><g transform="translate(-34.038)"><g transform="translate(34.038)"><g transform="translate(0)"><path class="a" d="M75.306,7.406A25.042,25.042,0,0,1,58.6,1.028L57.448,0,56.3,1.028A25.041,25.041,0,0,1,39.59,7.406H34.038V19.57a36.912,36.912,0,0,0,21.34,33.467l2.07.963,2.07-.963A36.912,36.912,0,0,0,80.858,19.57V7.406ZM77.693,19.57a33.747,33.747,0,0,1-19.51,30.6l-.734.342-.734-.342A33.747,33.747,0,0,1,37.2,19.57v-9H39.59A28.2,28.2,0,0,0,57.448,4.208a28.2,28.2,0,0,0,17.858,6.364h2.387v9Z" transform="translate(-34.038)"/></g></g><g transform="translate(47.205 16.759)"><path class="a" d="M173.938,164.329V158.9H164.3v5.425h-5.425v9.636H164.3v5.425h9.636v-5.425h5.425v-9.636h-5.425Zm2.26,6.471h-5.425v5.425h-3.306V170.8h-5.425v-3.306h5.425v-5.425h3.306v5.425H176.2Z" transform="translate(-158.877 -158.904)"/></g></g></svg>