<svg xmlns="http://www.w3.org/2000/svg" width="24" height="24" viewBox="0 0 24 24"><defs><style>.a{fill:#fff;}</style></defs><path class="a" d="M20.711,12.126H19.487a7.25,7.25,0,0,0-7.241-7.243V3.66A8.472,8.472,0,0,1,20.711,12.126ZM12.245,5.772V6.994a5.133,5.133,0,0,1,5.129,5.13H18.6A6.358,6.358,0,0,0,12.245,5.772ZM12,0a12,12,0,1,0,0,24,.741.741,0,0,0,0-1.481A10.519,10.519,0,1,1,22.519,12a6.819,6.819,0,0,1-3.136,5.844,4.535,4.535,0,0,1-2.174.559,3.478,3.478,0,0,0,1.169-1.123,1.578,1.578,0,0,0,.175-.264,11.935,11.935,0,0,0,.408-1.85c.179-.782-3.422-2.309-3.735-1.333a9.347,9.347,0,0,1-.514,1.806c-.2.269-.7.141-1.012-.123-.821-.7-1.737-1.727-2.541-2.54h0l-.068-.068c-.023-.021-.046-.046-.068-.068h0c-.813-.805-1.841-1.719-2.54-2.541-.264-.312-.392-.81-.123-1.012a9.347,9.347,0,0,1,1.806-.514c.974-.312-.551-3.915-1.334-3.735a11.866,11.866,0,0,0-1.849.406,1.737,1.737,0,0,0-.264.176c-2.056,1.3-2.322,4.468-.314,6.827.765.9,1.563,1.775,2.384,2.627l0,0c.023.023.046.044.07.066s.043.046.065.07l0,0a22.585,22.585,0,0,0,3.5,3.126c3.455,2.308,6.107,1.663,7.669.807A8.282,8.282,0,0,0,24,12,12.014,12.014,0,0,0,12,0Z"/></svg>