<svg xmlns="http://www.w3.org/2000/svg" width="16.875" height="24" viewBox="0 0 16.875 24"><defs><style>.a{fill:#fff;}</style></defs><g transform="translate(-76)"><g transform="translate(76)"><g transform="translate(0)"><path class="a" d="M84.438,0a8.439,8.439,0,0,0-7.178,12.874l6.7,10.793a.7.7,0,0,0,.6.332h.006a.7.7,0,0,0,.6-.342l6.527-10.9A8.439,8.439,0,0,0,84.438,0Zm6.041,12.038-5.934,9.908-6.089-9.813a7.036,7.036,0,1,1,12.023-.1Z" transform="translate(-76)"/></g></g><g transform="translate(80.219 4.219)"><g transform="translate(0)"><path class="a" d="M170.219,90a4.219,4.219,0,1,0,4.219,4.219A4.224,4.224,0,0,0,170.219,90Zm0,7.041a2.822,2.822,0,1,1,2.817-2.822A2.824,2.824,0,0,1,170.219,97.041Z" transform="translate(-166 -90)"/></g></g></g></svg>