<svg xmlns="http://www.w3.org/2000/svg" width="54" height="48.753" viewBox="0 0 54 48.753"><defs><style>.a{fill:#00c58d;}</style></defs><g transform="translate(0.001)"><path class="a" d="M48.3,0H13.387a5.475,5.475,0,0,0-5.5,5.435L7.666,36.182H.851a.887.887,0,0,0-.852.91v4.232A7.414,7.414,0,0,0,7,48.7v.051H36.4V48.7c.219.009.351.057.5.057h.021a7.392,7.392,0,0,0,7.348-7.43V14.429h8.877a.9.9,0,0,0,.852-.92V5.745A5.735,5.735,0,0,0,48.3,0ZM7.378,47H7.372a5.667,5.667,0,0,1-5.624-5.681V37.931H29.514v3.377a7.4,7.4,0,0,0,2.161,5.252,3.14,3.14,0,0,1,.46.444Zm35.144-5.682A5.647,5.647,0,0,1,36.921,47H36.9a5.682,5.682,0,0,1-5.641-5.7V37.092a.906.906,0,0,0-.874-.91H9.415L9.64,5.441a3.725,3.725,0,0,1,3.747-3.692h30.79a5.967,5.967,0,0,0-1.655,4.02ZM52.25,5.761v6.92h-7.98V5.767a4.05,4.05,0,0,1,4.009-4.018H48.3A3.986,3.986,0,0,1,52.25,5.754Zm0,0"/><path class="a" d="M165.713,69.243l4.509,3.082a.861.861,0,0,0,.977,0l4.5-3.082a6.792,6.792,0,0,0,2.715-5.181V57.826a.855.855,0,0,0-.466-.785l-6.865-3.377a.859.859,0,0,0-.764,0l-6.852,3.367a.853.853,0,0,0-.465.785v6.246a6.792,6.792,0,0,0,2.717,5.18Zm-.968-10.881,5.957-2.939,5.957,2.948v5.692a5.039,5.039,0,0,1-1.953,3.735l-4.015,2.746-4-2.746a5.037,5.037,0,0,1-1.948-3.736Zm0,0" transform="translate(-145.179 -47.718)"/><path class="a" d="M203.556,121.1a.873.873,0,0,0,.619.262h0a.876.876,0,0,0,.618-.259l3.479-3.48a.875.875,0,0,0-1.237-1.238l-2.857,2.857-1.142-1.153a.875.875,0,1,0-1.243,1.232Zm0,0" transform="translate(-179.511 -103.436)"/><path class="a" d="M154.862,248H133.874a.874.874,0,1,0,0,1.749h20.988a.874.874,0,1,0,0-1.749Zm0,0" transform="translate(-118.462 -220.891)"/><path class="a" d="M154.862,285H133.874a.874.874,0,1,0,0,1.749h20.988a.874.874,0,1,0,0-1.749Zm0,0" transform="translate(-118.462 -253.846)"/></g></svg>