<svg xmlns="http://www.w3.org/2000/svg" width="54" height="48.753" viewBox="0 0 54 48.753"><defs><style>.a{fill:#fcbe2d;}</style></defs><g transform="translate(0.001 0)"><path class="a" d="M48.3,0H13.387a5.475,5.475,0,0,0-5.5,5.435L7.666,36.182H.851a.887.887,0,0,0-.852.91v4.232A7.414,7.414,0,0,0,7,48.7v.051H36.4V48.7c.219.009.351.057.5.057h.021a7.392,7.392,0,0,0,7.348-7.43V14.429h8.877a.9.9,0,0,0,.852-.92V5.745A5.735,5.735,0,0,0,48.3,0ZM7.378,47H7.372a5.667,5.667,0,0,1-5.624-5.681V37.931H29.514v3.377a7.4,7.4,0,0,0,2.161,5.252,3.14,3.14,0,0,1,.46.444Zm35.144-5.682A5.647,5.647,0,0,1,36.921,47H36.9a5.682,5.682,0,0,1-5.641-5.7V37.092a.906.906,0,0,0-.874-.91H9.415L9.64,5.441a3.725,3.725,0,0,1,3.747-3.692h30.79a5.967,5.967,0,0,0-1.655,4.02ZM52.25,5.761v6.92h-7.98V5.767a4.05,4.05,0,0,1,4.009-4.018H48.3A3.986,3.986,0,0,1,52.25,5.754Zm0,0"/><path class="a" d="M154.862,248H133.874a.874.874,0,1,0,0,1.749h20.988a.874.874,0,1,0,0-1.749Zm0,0" transform="translate(-118.462 -220.891)"/><path class="a" d="M154.862,285H133.874a.874.874,0,1,0,0,1.749h20.988a.874.874,0,1,0,0-1.749Zm0,0" transform="translate(-118.462 -253.846)"/></g></svg>