<svg xmlns="http://www.w3.org/2000/svg" width="24" height="24" viewBox="0 0 24 24"><defs><style>.a{fill:#2f3241;}</style></defs><g transform="translate(0 -0.003)"><path class="a" d="M23.467,20.859,18.52,15.912a9.878,9.878,0,0,0,1.789-5.755,9.974,9.974,0,0,0-.8-3.945A9.944,9.944,0,0,0,14.1.8a10.12,10.12,0,0,0-7.89,0A9.944,9.944,0,0,0,.8,6.212,10.119,10.119,0,0,0,.8,14.1,9.946,9.946,0,0,0,6.209,19.51a9.978,9.978,0,0,0,3.945.8,9.878,9.878,0,0,0,5.755-1.789l4.947,4.933a1.713,1.713,0,0,0,1.3.548,1.846,1.846,0,0,0,1.313-3.144Zm-8.748-6.137a6.222,6.222,0,0,1-4.565,1.9,6.223,6.223,0,0,1-4.565-1.9,6.222,6.222,0,0,1-1.9-4.565,6.223,6.223,0,0,1,1.9-4.565,6.222,6.222,0,0,1,4.565-1.9,6.224,6.224,0,0,1,4.565,1.9,6.222,6.222,0,0,1,1.9,4.565A6.223,6.223,0,0,1,14.719,14.722Z" transform="translate(0)"/></g></svg>