<svg xmlns="http://www.w3.org/2000/svg" width="54" height="44.273" viewBox="0 0 54 44.273"><defs><style>.a{fill:#5c54ff;}</style></defs><g transform="translate(0 -35.792)"><g transform="translate(18.865 40.854)"><g transform="translate(0 0)"><path class="a" d="M143.55,76.4l-2.973-3.006a.989.989,0,1,0-1.4,1.386l2.973,3.006a.989.989,0,0,0,1.4-1.386Z" transform="translate(-138.829 -73.039)"/></g></g><g transform="translate(43.923 41.009)"><g transform="translate(0 0)"><path class="a" d="M328.114,74.539a.989.989,0,0,0-1.51-.009L323.6,77.5a.989.989,0,1,0,1.386,1.4l3.006-2.973A.989.989,0,0,0,328.114,74.539Z" transform="translate(-323.244 -74.184)"/></g></g><g transform="translate(27.825 35.792)"><g transform="translate(0 0)"><path class="a" d="M207.825,40.744q-.009-.043-.022-.085l-1.087-4.087a.984.984,0,0,0-1.925.409q.009.043.022.085l1.087,4.087a.984.984,0,1,0,1.925-.409Z" transform="translate(-204.769 -35.792)"/></g></g><g transform="translate(0 44.329)"><g transform="translate(0)"><path class="a" d="M44.4,116.077q-.277-.277-.576-.544l.163-.294a11.42,11.42,0,0,0,.544-1.147A11.278,11.278,0,0,0,38.25,99.431l-.032-.013a11.284,11.284,0,0,0-13.98,4.892A12.811,12.811,0,0,0,7.981,116.686v.511a8.588,8.588,0,0,0,.544,17.154H36.815A10.7,10.7,0,0,0,44.4,116.077ZM30.614,101.255a9.309,9.309,0,0,1,12.077,12.1,9.43,9.43,0,0,1-.467.962v.087a10.713,10.713,0,0,0-8.99-.826,12.794,12.794,0,0,0-3.239-5.81,4.588,4.588,0,0,1,5.707-2.1.984.984,0,0,0,.723-1.826,6.522,6.522,0,0,0-7.957,2.6,12.84,12.84,0,0,0-2.386-1.419A9.3,9.3,0,0,1,30.614,101.255Zm8.266,30.878a8.735,8.735,0,0,1-2.054.239H8.562a6.615,6.615,0,0,1-4.674-11.289l-.011.005a6.593,6.593,0,0,1,4.674-1.935H9a.984.984,0,0,0,1.033-1.169q-.033-.283-.054-.614v-.69a10.838,10.838,0,0,1,21.535-1.593.984.984,0,0,0,1.413.739,8.737,8.737,0,1,1,5.951,16.306Z" transform="translate(0 -98.614)"/></g></g><g transform="translate(47.986 49.992)"><path class="a" d="M359.115,140.983a.984.984,0,0,0-1.145-.672l-4.087,1.087a.983.983,0,1,0,.491,1.9h0l4.087-1.087A.984.984,0,0,0,359.115,140.983Z" transform="translate(-353.145 -140.289)"/></g><g transform="translate(47.927 59.15)"><g transform="translate(0 0)"><path class="a" d="M358.045,208.838l-4.076-1.114a.987.987,0,1,0-.544,1.9l4.077,1.114a.987.987,0,0,0,.544-1.9Z" transform="translate(-352.71 -207.685)"/></g></g><g transform="translate(36.997 35.873)"><g transform="translate(0 0)"><path class="a" d="M274.644,36.424a.987.987,0,0,0-1.22.677l-1.114,4.076a.984.984,0,0,0,.661,1.224l.035.01a.984.984,0,0,0,1.222-.666l.007-.024,1.087-4.076A.987.987,0,0,0,274.644,36.424Z" transform="translate(-272.268 -36.385)"/></g></g></g></svg>